<?xml version="1.0" encoding="UTF-8"?>
<svg xmlns="http://www.w3.org/2000/svg" xmlns:xlink="http://www.w3.org/1999/xlink" width="256" height="256" viewBox="0 0 256 256">
<rect x="-25.6" y="-25.6" width="307.2" height="307.2" fill="rgb(100%, 100%, 100%)" fill-opacity="1"/>
<path fill="none" stroke-width="0.001" stroke-linecap="butt" stroke-linejoin="miter" stroke="rgb(0%, 0%, 0%)" stroke-opacity="1" stroke-miterlimit="10" d="M 0.550003 0.5 C 0.550003 0.527618 0.527618 0.550003 0.5 0.550003 C 0.472382 0.550003 0.449997 0.527618 0.449997 0.5 C 0.449997 0.472382 0.472382 0.449997 0.5 0.449997 C 0.527618 0.449997 0.550003 0.472382 0.550003 0.5 " transform="matrix(256, 0, 0, 256, 0, 0)"/>
<path fill="none" stroke-width="0.001" stroke-linecap="butt" stroke-linejoin="miter" stroke="rgb(0%, 0%, 0%)" stroke-opacity="1" stroke-miterlimit="10" d="M 0.949997 0.5 C 0.949997 0.748535 0.748535 0.949997 0.5 0.949997 C 0.251465 0.949997 0.0500031 0.748535 0.0500031 0.5 C 0.0500031 0.251465 0.251465 0.0500031 0.5 0.0500031 C 0.748535 0.0500031 0.949997 0.251465 0.949997 0.5 " transform="matrix(256, 0, 0, 256, 0, 0)"/>
<path fill="none" stroke-width="0.001" stroke-linecap="butt" stroke-linejoin="miter" stroke="rgb(50%, 50%, 50%)" stroke-opacity="1" stroke-miterlimit="10" d="M 0.630005 0.5 C 0.630005 0.571793 0.571793 0.630005 0.5 0.630005 C 0.428207 0.630005 0.369995 0.571793 0.369995 0.5 C 0.369995 0.428207 0.428207 0.369995 0.5 0.369995 C 0.571793 0.369995 0.630005 0.428207 0.630005 0.5 " transform="matrix(256, 0, 0, 256, 0, 0)"/>
<path fill="none" stroke-width="0.001" stroke-linecap="butt" stroke-linejoin="miter" stroke="rgb(50%, 50%, 50%)" stroke-opacity="1" stroke-miterlimit="10" d="M 0.710007 0.5 C 0.710007 0.615982 0.615982 0.710007 0.5 0.710007 C 0.384018 0.710007 0.289993 0.615982 0.289993 0.5 C 0.289993 0.384018 0.384018 0.289993 0.5 0.289993 C 0.615982 0.289993 0.710007 0.384018 0.710007 0.5 " transform="matrix(256, 0, 0, 256, 0, 0)"/>
<path fill="none" stroke-width="0.001" stroke-linecap="butt" stroke-linejoin="miter" stroke="rgb(50%, 50%, 50%)" stroke-opacity="1" stroke-miterlimit="10" d="M 0.789993 0.5 C 0.789993 0.660156 0.660156 0.789993 0.5 0.789993 C 0.339844 0.789993 0.210007 0.660156 0.210007 0.5 C 0.210007 0.339844 0.339844 0.210007 0.5 0.210007 C 0.660156 0.210007 0.789993 0.339844 0.789993 0.5 " transform="matrix(256, 0, 0, 256, 0, 0)"/>
<path fill="none" stroke-width="0.001" stroke-linecap="butt" stroke-linejoin="miter" stroke="rgb(50%, 50%, 50%)" stroke-opacity="1" stroke-miterlimit="10" d="M 0.869995 0.5 C 0.869995 0.704346 0.704346 0.869995 0.5 0.869995 C 0.295654 0.869995 0.130005 0.704346 0.130005 0.5 C 0.130005 0.295654 0.295654 0.130005 0.5 0.130005 C 0.704346 0.130005 0.869995 0.295654 0.869995 0.5 " transform="matrix(256, 0, 0, 256, 0, 0)"/>
<path fill="none" stroke-width="0.08" stroke-linecap="butt" stroke-linejoin="miter" stroke="rgb(50%, 50%, 50%)" stroke-opacity="0.3" stroke-miterlimit="10" d="M 0.910004 0.5 C 0.910004 0.72644 0.72644 0.910004 0.5 0.910004 C 0.27356 0.910004 0.0899963 0.72644 0.0899963 0.5 C 0.0899963 0.27356 0.27356 0.0899963 0.5 0.0899963 C 0.72644 0.0899963 0.910004 0.27356 0.910004 0.5 " transform="matrix(256, 0, 0, 256, 0, 0)"/>
<path fill="none" stroke-width="0.02" stroke-linecap="butt" stroke-linejoin="miter" stroke="rgb(81.568627%, 0%, 0%)" stroke-opacity="1" stroke-miterlimit="10" d="M 0.5 0.410004 C 0.538986 0.410004 0.573547 0.435104 0.585602 0.472183 " transform="matrix(256, 0, 0, 256, 0, 0)"/>
<path fill="none" stroke-width="0.02" stroke-linecap="butt" stroke-linejoin="miter" stroke="rgb(90.980392%, 36.470588%, 1.568627%)" stroke-opacity="1" stroke-miterlimit="10" d="M 0.5 0.330002 C 0.573654 0.330002 0.638916 0.377426 0.661682 0.447464 " transform="matrix(256, 0, 0, 256, 0, 0)"/>
<path fill="none" stroke-width="0.02" stroke-linecap="butt" stroke-linejoin="miter" stroke="rgb(100%, 72.941176%, 3.137255%)" stroke-opacity="1" stroke-miterlimit="10" d="M 0.737762 0.422745 C 0.77124 0.525757 0.734573 0.638596 0.646942 0.702255 " transform="matrix(256, 0, 0, 256, 0, 0)"/>
<path fill="none" stroke-width="0.02" stroke-linecap="butt" stroke-linejoin="miter" stroke="rgb(62.352941%, 63.137255%, 40.392157%)" stroke-opacity="1" stroke-miterlimit="10" d="M 0.813843 0.398026 C 0.858032 0.533997 0.809631 0.682938 0.69397 0.766983 " transform="matrix(256, 0, 0, 256, 0, 0)"/>
<path fill="none" stroke-width="0.02" stroke-linecap="butt" stroke-linejoin="miter" stroke="rgb(81.568627%, 0%, 0%)" stroke-opacity="1" stroke-miterlimit="10" d="M 0.552902 0.572815 C 0.521362 0.595734 0.478638 0.595734 0.447098 0.572815 " transform="matrix(256, 0, 0, 256, 0, 0)"/>
<path fill="none" stroke-width="0.02" stroke-linecap="butt" stroke-linejoin="miter" stroke="rgb(100%, 72.941176%, 3.137255%)" stroke-opacity="1" stroke-miterlimit="10" d="M 0.646942 0.702255 C 0.559326 0.765915 0.440674 0.765915 0.353058 0.702255 " transform="matrix(256, 0, 0, 256, 0, 0)"/>
<path fill="none" stroke-width="0.02" stroke-linecap="butt" stroke-linejoin="miter" stroke="rgb(24.705882%, 53.333333%, 77.254902%)" stroke-opacity="1" stroke-miterlimit="10" d="M 0.740997 0.831696 C 0.59729 0.936096 0.40271 0.936096 0.259003 0.831696 " transform="matrix(256, 0, 0, 256, 0, 0)"/>
<path fill="none" stroke-width="0.02" stroke-linecap="butt" stroke-linejoin="miter" stroke="rgb(81.568627%, 0%, 0%)" stroke-opacity="1" stroke-miterlimit="10" d="M 0.447098 0.572815 C 0.415558 0.549896 0.402359 0.509277 0.414398 0.472183 " transform="matrix(256, 0, 0, 256, 0, 0)"/>
<path fill="none" stroke-width="0.02" stroke-linecap="butt" stroke-linejoin="miter" stroke="rgb(100%, 72.941176%, 3.137255%)" stroke-opacity="1" stroke-miterlimit="10" d="M 0.353058 0.702255 C 0.265427 0.638596 0.22876 0.525757 0.262238 0.422745 " transform="matrix(256, 0, 0, 256, 0, 0)"/>
<path fill="none" stroke-width="0.02" stroke-linecap="butt" stroke-linejoin="miter" stroke="rgb(81.568627%, 0%, 0%)" stroke-opacity="1" stroke-miterlimit="10" d="M 0.414398 0.472183 C 0.426453 0.435104 0.461014 0.410004 0.5 0.410004 " transform="matrix(256, 0, 0, 256, 0, 0)"/>
<path fill="none" stroke-width="0.02" stroke-linecap="butt" stroke-linejoin="miter" stroke="rgb(100%, 72.941176%, 3.137255%)" stroke-opacity="1" stroke-miterlimit="10" d="M 0.262238 0.422745 C 0.2957 0.319733 0.391693 0.25 0.5 0.25 " transform="matrix(256, 0, 0, 256, 0, 0)"/>
<path fill="none" stroke-width="0.001" stroke-linecap="butt" stroke-linejoin="miter" stroke="rgb(0%, 0%, 0%)" stroke-opacity="1" stroke-miterlimit="10" d="M 0 0.0500031 L -0.000000000000000056 0.449997 " transform="matrix(-256, 0.000000000000031351, -0.000000000000031351, -256, 128, 128)"/>
<path fill="none" stroke-width="0.001" stroke-linecap="butt" stroke-linejoin="miter" stroke="rgb(0%, 0%, 0%)" stroke-opacity="1" stroke-miterlimit="10" d="M 0.00000798487 0.0499958 L -0.00000504494 0.450002 " transform="matrix(-79.108351, -243.470468, 243.470468, -79.108351, 128, 128)"/>
<path fill="none" stroke-width="0.001" stroke-linecap="butt" stroke-linejoin="miter" stroke="rgb(0%, 0%, 0%)" stroke-opacity="1" stroke-miterlimit="10" d="M -0.00000079304 0.0499997 L -0.00000713736 0.449997 " transform="matrix(207.108351, -150.473025, 150.473025, 207.108351, 128, 128)"/>
<path fill="none" stroke-width="0.001" stroke-linecap="butt" stroke-linejoin="miter" stroke="rgb(0%, 0%, 0%)" stroke-opacity="1" stroke-miterlimit="10" d="M 0.00000079304 0.0499997 L 0.00000713736 0.449997 " transform="matrix(207.108351, 150.473025, -150.473025, 207.108351, 128, 128)"/>
<path fill="none" stroke-width="0.001" stroke-linecap="butt" stroke-linejoin="miter" stroke="rgb(0%, 0%, 0%)" stroke-opacity="1" stroke-miterlimit="10" d="M -0.00000798487 0.0499958 L 0.00000504494 0.450002 " transform="matrix(-79.108351, 243.470468, -243.470468, -79.108351, 128, 128)"/>
<path fill="none" stroke-width="0.004" stroke-linecap="butt" stroke-linejoin="miter" stroke="rgb(50%, 50%, 50%)" stroke-opacity="1" stroke-dasharray="0.01" stroke-miterlimit="10" d="M 0.869995 0.5 C 0.869995 0.704346 0.704346 0.869995 0.5 0.869995 C 0.295654 0.869995 0.130005 0.704346 0.130005 0.5 C 0.130005 0.295654 0.295654 0.130005 0.5 0.130005 C 0.704346 0.130005 0.869995 0.295654 0.869995 0.5 " transform="matrix(256, 0, 0, 256, 0, 0)"/>
<path fill="none" stroke-width="0.004" stroke-linecap="butt" stroke-linejoin="miter" stroke="rgb(50%, 50%, 50%)" stroke-opacity="1" stroke-dasharray="0.01" stroke-miterlimit="10" d="M 0.949997 0.5 C 0.949997 0.748535 0.748535 0.949997 0.5 0.949997 C 0.251465 0.949997 0.0500031 0.748535 0.0500031 0.5 C 0.0500031 0.251465 0.251465 0.0500031 0.5 0.0500031 C 0.748535 0.0500031 0.949997 0.251465 0.949997 0.5 " transform="matrix(256, 0, 0, 256, 0, 0)"/>
</svg>
