<?xml version="1.0" encoding="UTF-8"?>
<svg xmlns="http://www.w3.org/2000/svg" xmlns:xlink="http://www.w3.org/1999/xlink" width="256" height="256" viewBox="0 0 256 256">
<rect x="-25.6" y="-25.6" width="307.2" height="307.2" fill="rgb(100%, 100%, 100%)" fill-opacity="1"/>
<path fill="none" stroke-width="0.001" stroke-linecap="butt" stroke-linejoin="miter" stroke="rgb(0%, 0%, 0%)" stroke-opacity="1" stroke-miterlimit="10" d="M 0.550003 0.5 C 0.550003 0.527618 0.527618 0.550003 0.5 0.550003 C 0.472382 0.550003 0.449997 0.527618 0.449997 0.5 C 0.449997 0.472382 0.472382 0.449997 0.5 0.449997 C 0.527618 0.449997 0.550003 0.472382 0.550003 0.5 " transform="matrix(256, 0, 0, 256, 0, 0)"/>
<path fill="none" stroke-width="0.001" stroke-linecap="butt" stroke-linejoin="miter" stroke="rgb(0%, 0%, 0%)" stroke-opacity="1" stroke-miterlimit="10" d="M 0.949997 0.5 C 0.949997 0.748535 0.748535 0.949997 0.5 0.949997 C 0.251465 0.949997 0.0500031 0.748535 0.0500031 0.5 C 0.0500031 0.251465 0.251465 0.0500031 0.5 0.0500031 C 0.748535 0.0500031 0.949997 0.251465 0.949997 0.5 " transform="matrix(256, 0, 0, 256, 0, 0)"/>
<path fill="none" stroke-width="0.001" stroke-linecap="butt" stroke-linejoin="miter" stroke="rgb(50%, 50%, 50%)" stroke-opacity="1" stroke-miterlimit="10" d="M 0.630005 0.5 C 0.630005 0.571793 0.571793 0.630005 0.5 0.630005 C 0.428207 0.630005 0.369995 0.571793 0.369995 0.5 C 0.369995 0.428207 0.428207 0.369995 0.5 0.369995 C 0.571793 0.369995 0.630005 0.428207 0.630005 0.5 " transform="matrix(256, 0, 0, 256, 0, 0)"/>
<path fill="none" stroke-width="0.001" stroke-linecap="butt" stroke-linejoin="miter" stroke="rgb(50%, 50%, 50%)" stroke-opacity="1" stroke-miterlimit="10" d="M 0.710007 0.5 C 0.710007 0.615982 0.615982 0.710007 0.5 0.710007 C 0.384018 0.710007 0.289993 0.615982 0.289993 0.5 C 0.289993 0.384018 0.384018 0.289993 0.5 0.289993 C 0.615982 0.289993 0.710007 0.384018 0.710007 0.5 " transform="matrix(256, 0, 0, 256, 0, 0)"/>
<path fill="none" stroke-width="0.001" stroke-linecap="butt" stroke-linejoin="miter" stroke="rgb(50%, 50%, 50%)" stroke-opacity="1" stroke-miterlimit="10" d="M 0.789993 0.5 C 0.789993 0.660156 0.660156 0.789993 0.5 0.789993 C 0.339844 0.789993 0.210007 0.660156 0.210007 0.5 C 0.210007 0.339844 0.339844 0.210007 0.5 0.210007 C 0.660156 0.210007 0.789993 0.339844 0.789993 0.5 " transform="matrix(256, 0, 0, 256, 0, 0)"/>
<path fill="none" stroke-width="0.001" stroke-linecap="butt" stroke-linejoin="miter" stroke="rgb(50%, 50%, 50%)" stroke-opacity="1" stroke-miterlimit="10" d="M 0.869995 0.5 C 0.869995 0.704346 0.704346 0.869995 0.5 0.869995 C 0.295654 0.869995 0.130005 0.704346 0.130005 0.5 C 0.130005 0.295654 0.295654 0.130005 0.5 0.130005 C 0.704346 0.130005 0.869995 0.295654 0.869995 0.5 " transform="matrix(256, 0, 0, 256, 0, 0)"/>
<path fill="none" stroke-width="0.02" stroke-linecap="butt" stroke-linejoin="miter" stroke="rgb(81.568627%, 0%, 0%)" stroke-opacity="1" stroke-miterlimit="10" d="M 0.563644 0.436356 C 0.598785 0.471512 0.598785 0.528488 0.563644 0.563644 " transform="matrix(256, 0, 0, 256, 0, 0)"/>
<path fill="none" stroke-width="0.02" stroke-linecap="butt" stroke-linejoin="miter" stroke="rgb(90.980392%, 36.470588%, 1.568627%)" stroke-opacity="1" stroke-miterlimit="10" d="M 0.620209 0.379791 C 0.6866 0.446182 0.6866 0.553818 0.620209 0.620209 " transform="matrix(256, 0, 0, 256, 0, 0)"/>
<path fill="none" stroke-width="0.02" stroke-linecap="butt" stroke-linejoin="miter" stroke="rgb(100%, 72.941176%, 3.137255%)" stroke-opacity="1" stroke-miterlimit="10" d="M 0.676773 0.676773 C 0.579147 0.774414 0.420853 0.774414 0.323227 0.676773 " transform="matrix(256, 0, 0, 256, 0, 0)"/>
<path fill="none" stroke-width="0.02" stroke-linecap="butt" stroke-linejoin="miter" stroke="rgb(62.352941%, 63.137255%, 40.392157%)" stroke-opacity="1" stroke-miterlimit="10" d="M 0.733353 0.733353 C 0.604477 0.862213 0.395523 0.862213 0.266647 0.733353 " transform="matrix(256, 0, 0, 256, 0, 0)"/>
<path fill="none" stroke-width="0.02" stroke-linecap="butt" stroke-linejoin="miter" stroke="rgb(81.568627%, 0%, 0%)" stroke-opacity="1" stroke-miterlimit="10" d="M 0.436356 0.563644 C 0.401215 0.528488 0.401215 0.471512 0.436356 0.436356 " transform="matrix(256, 0, 0, 256, 0, 0)"/>
<path fill="none" stroke-width="0.02" stroke-linecap="butt" stroke-linejoin="miter" stroke="rgb(100%, 72.941176%, 3.137255%)" stroke-opacity="1" stroke-miterlimit="10" d="M 0.323227 0.676773 C 0.225586 0.579147 0.225586 0.420853 0.323227 0.323227 " transform="matrix(256, 0, 0, 256, 0, 0)"/>
<path fill="none" stroke-width="0.02" stroke-linecap="butt" stroke-linejoin="miter" stroke="rgb(24.705882%, 53.333333%, 77.254902%)" stroke-opacity="1" stroke-miterlimit="10" d="M 0.210083 0.789917 C 0.0499725 0.629791 0.0499725 0.370209 0.210083 0.210083 " transform="matrix(256, 0, 0, 256, 0, 0)"/>
<path fill="none" stroke-width="0.02" stroke-linecap="butt" stroke-linejoin="miter" stroke="rgb(81.568627%, 0%, 0%)" stroke-opacity="1" stroke-miterlimit="10" d="M 0.436356 0.436356 C 0.471512 0.401215 0.528488 0.401215 0.563644 0.436356 " transform="matrix(256, 0, 0, 256, 0, 0)"/>
<path fill="none" stroke-width="0.02" stroke-linecap="butt" stroke-linejoin="miter" stroke="rgb(24.705882%, 53.333333%, 77.254902%)" stroke-opacity="1" stroke-miterlimit="10" d="M 0.210083 0.210083 C 0.370209 0.0499725 0.629791 0.0499725 0.789917 0.210083 " transform="matrix(256, 0, 0, 256, 0, 0)"/>
<path fill="none" stroke-width="0.001" stroke-linecap="butt" stroke-linejoin="miter" stroke="rgb(0%, 0%, 0%)" stroke-opacity="1" stroke-miterlimit="10" d="M 0 0.049999 L 0.000000000000000056 0.449991 " transform="matrix(181.019336, -181.019336, 181.019336, 181.019336, 128, 128)"/>
<path fill="none" stroke-width="0.001" stroke-linecap="butt" stroke-linejoin="miter" stroke="rgb(0%, 0%, 0%)" stroke-opacity="1" stroke-miterlimit="10" d="M 0 0.049999 L 0 0.449991 " transform="matrix(181.019336, 181.019336, -181.019336, 181.019336, 128, 128)"/>
<path fill="none" stroke-width="0.001" stroke-linecap="butt" stroke-linejoin="miter" stroke="rgb(0%, 0%, 0%)" stroke-opacity="1" stroke-miterlimit="10" d="M 0 0.049999 L -0.000000000000000028 0.449991 " transform="matrix(-181.019336, 181.019336, -181.019336, -181.019336, 128, 128)"/>
<path fill="none" stroke-width="0.001" stroke-linecap="butt" stroke-linejoin="miter" stroke="rgb(0%, 0%, 0%)" stroke-opacity="1" stroke-miterlimit="10" d="M -0.000000000000000111 0.049999 L -0.000000000000000111 0.449991 " transform="matrix(-181.019336, -181.019336, 181.019336, -181.019336, 128, 128)"/>
</svg>
